<?xml version="1.0" encoding="utf-8"?>
<!-- Generator: Adobe Illustrator 24.2.1, SVG Export Plug-In . SVG Version: 6.00 Build 0)  -->
<svg version="1.1" id="Layer_1" focusable="false" xmlns="http://www.w3.org/2000/svg" xmlns:xlink="http://www.w3.org/1999/xlink"
	 x="0px" y="0px" viewBox="0 0 608.9 608.9" style="enable-background:new 0 0 608.9 608.9;" xml:space="preserve">
<style type="text/css">
	.st0{fill:#F7E9E8;}
	.st1{fill:#C55A59;}
</style>
<path class="st0" d="M568.9,608.9H40c-22.1,0-40-17.9-40-40V40C0,17.9,17.9,0,40,0h528.9c22.1,0,40,17.9,40,40v528.9
	C608.9,591,591,608.9,568.9,608.9z"/>
<path class="st1" d="M255.7,314.6c-15-41.4,2.7-86.6,39.7-107.7c-4.6-3-9.4-5.7-14.8-7.6c-37.4-13.5-78.6,5.7-92.2,43
	c-0.4,1.1-7.9,21.8-8.3,23c-15.7,43.2-35.8,50.8-47.1,56.6c-10.8,5.6-10.5,21.9,1.6,26.3l131.2,47.8c4.5-10.4,10.5-24.6-1.8-58.3
	C258.7,323,260.7,328.4,255.7,314.6L255.7,314.6z M199.6,417.2c14.9,5.4,31-0.2,39.8-12.5L177.2,382
	C176,397.1,184.7,411.7,199.6,417.2z M395.8,434.4c14.9-5.4,23.7-20.1,22.4-35.2L356,421.9C364.8,434.2,380.9,439.8,395.8,434.4
	L395.8,434.4z M462.5,339.1c-11.3-5.8-31.4-13.4-47.1-56.6c-0.4-1.2-7.9-21.8-8.3-23c-13.6-37.3-54.9-56.6-92.2-43
	c-37.3,13.6-56.6,54.8-43,92.2c0.4,1.1,8,21.8,8.4,23c15.7,43.2,5.2,62,0.3,73.7c-4.7,11.2,6,23.5,18.2,19.1l162.1-59
	C471.9,361.4,474.3,345.1,462.5,339.1L462.5,339.1z"/>
</svg>
