<?xml version="1.0" encoding="utf-8"?>
<!-- Generator: Adobe Illustrator 24.2.1, SVG Export Plug-In . SVG Version: 6.00 Build 0)  -->
<svg version="1.1" id="Layer_1" opacity="0.6" xmlns="http://www.w3.org/2000/svg" xmlns:xlink="http://www.w3.org/1999/xlink"
	 x="0px" y="0px" viewBox="0 0 300 300" style="enable-background:new 0 0 300 300;" xml:space="preserve">
<style type="text/css">
	.st0{fill:#FFFFFF;}
</style>
<g>
	<path class="st0" d="M230.1,96.5c-1.4-2.6-2.7-4.9-4.4-7.3c-2.3-3.4-4.7-6.6-7.3-9.7c-1.4-1.6-2.8-3.2-4.3-4.7
		c-0.7-0.7-1.4-1.5-2.1-2.1c-1.2-1.2-2.5-2.3-3.7-3.4c-0.3-0.2-0.6-0.5-0.9-0.8c-0.3-0.3-0.6-0.5-1-0.8c-0.3-0.3-0.6-0.5-1-0.8
		c-0.3-0.2-0.6-0.5-0.9-0.7l-0.1-0.1c-0.7-0.6-1.5-1.1-2.2-1.7c-2.1-1.5-4.2-3-6.4-4.4c-0.7-0.4-1.3-0.8-2-1.2
		c-0.2-0.1-0.4-0.3-0.7-0.4l0,0l0,0l0,0c-0.1,0-0.1-0.1-0.2-0.1c-1.1-0.6-2.1-1.2-3.2-1.7c-4.5-2.3-9.2-4.3-14-5.9
		c-1.2-0.4-2.4-0.8-3.7-1.2c-0.6-0.2-1.2-0.3-1.7-0.5c-0.1,0-0.5-0.1-0.7-0.2h-0.1c0,0,0,0-0.1,0c0,0,0,0-0.1,0l0,0l0,0
		c-0.2-0.1-0.3-0.1-0.4-0.1c-2.4-0.6-4.9-1.1-7.3-1.5c-5.1-0.9-10.2-1.4-15.4-1.5c-0.7,0-1.4,0-2.1,0c-0.1,0-0.5,0-0.7,0l0,0l0,0
		l0,0c-0.2,0-0.4,0-0.7,0c-1.2,0-2.4,0.1-3.7,0.2c-2.5,0.2-5,0.4-7.6,0.8c-2.6,0.4-5.2,0.8-7.8,1.4c-2.6,0.6-5,1.2-7,1.8
		c-5.1,1.6-10.1,3.6-14.9,5.9c-1.3,0.6-2.6,1.3-3.9,2c-0.5,0.3-1.1,0.6-1.6,0.9c-0.3,0.1-0.5,0.3-0.8,0.5c0,0-0.2,0.1-0.3,0.1
		c0,0-0.1,0-0.1,0.1l0,0l0,0l0,0l0,0l0,0l0,0l0,0c-2.1,1.2-4.2,2.6-6.2,4.1c-4,2.8-7.8,5.9-11.4,9.3c-0.5,0.4-0.9,0.9-1.4,1.4
		c-0.1,0.1-0.3,0.3-0.4,0.4l0,0l0,0l0,0l0,0l0,0l0,0l0,0c0,0,0,0,0,0.1l0,0c-0.1,0.1-0.1,0.2-0.2,0.2c-0.8,0.8-1.6,1.7-2.4,2.5
		c-1.6,1.8-3.2,3.7-4.7,5.6s-2.9,3.9-4.3,5.9c-0.7,1.1-1.4,2.1-2.1,3.2c-0.3,0.5-0.6,1-0.9,1.5c-0.1,0.2-0.3,0.5-0.4,0.7
		c0,0,0,0.1-0.1,0.1v0.1l0,0l0,0c0,0,0,0,0,0.1l0,0c0,0,0,0,0,0.1l0,0l0,0l0,0l0,0l0,0c-2.3,4-4.3,8.2-6,12.6
		c-0.9,2.2-1.7,4.5-2.4,6.8c-0.4,1.1-0.7,2.3-1,3.4c0,0.1-0.3,0.9-0.3,1.1l0,0l0,0c-0.1,0.5-0.2,0.9-0.3,1.4
		c-1.1,4.7-1.9,9.4-2.3,14.2c-0.2,2.4-0.3,4.8-0.4,7.2c0,0.6,0,1.3,0,1.9c0,0.2,0,0.5,0,0.7l0,0l0,0l0,0l0,0l0,0v0.1
		c0,1.2,0.1,2.4,0.1,3.6c0,0.7,0.1,1.4,0.2,2.1l0,0c0.1,1.3,0.2,2.6,0.4,3.9c0,0.4,0.1,0.9,0.2,1.3c0.1,0.9,0.2,1.7,0.4,2.6
		c0,0.2,0.1,0.5,0.1,0.7s0,0.3,0.1,0.5c0.1,0.4,0.1,0.7,0.2,1.1c0,0.1,0,0.2,0.1,0.3s0,0.2,0.1,0.2c0,0.2,0.1,0.4,0.1,0.5
		c0.1,0.7,0.3,1.4,0.4,2.1c0,0.1,0,0.1,0,0.2c0.1,0.3,0.2,0.7,0.2,1c0.1,0.4,0.2,0.7,0.3,1.1c0.4,1.6,0.8,3.1,1.2,4.6
		c2.6,8.9,6.6,17.5,11.7,25.3c-0.5,0.1-1.1,0.2-1.6,0.3c0.5-0.1,1-0.1,1.6-0.2c0.5-0.1,1-0.1,1.5-0.2l0,0c0.3,0,0.7-0.1,1-0.2
		c0.4-0.1,0.7-0.1,1.1-0.2c0.3-0.1,0.6-0.1,0.9-0.2c0.4-0.1,0.9-0.2,1.3-0.3c0.5-0.1,0.9-0.2,1.4-0.3c1.1-0.2,2.2-0.5,3.2-0.7h0.1
		c0.6-0.1,1.1-0.3,1.7-0.4c0.6-0.2,1.2-0.3,1.8-0.5c0.5-0.1,1-0.3,1.5-0.4c0.7-0.2,1.4-0.4,2.1-0.6c0,0,0.2-0.1,0.3-0.1
		c0.1,0,0.1,0,0.2,0s0.1,0,0.2-0.1l0,0l0,0l0,0l0,0l0,0l0,0l0,0l0,0l0,0l0,0l0,0l0,0l0,0l0,0l0,0l0,0l0,0H82
		c0.2-0.1,0.5-0.1,0.5-0.1c0.6-0.2,1.1-0.3,1.6-0.5c1.3-0.4,2.6-0.8,3.9-1.2c0.2-0.1,0.5-0.2,0.7-0.2c0.5-0.2,1-0.3,1.5-0.5
		c0.5-0.1,1-0.3,1.4-0.5c0.3-0.1,0.6-0.2,0.9-0.3c0.4-0.2,0.9-0.3,1.3-0.4c0.4-0.2,0.9-0.3,1.3-0.4c0.5-0.2,1-0.4,1.5-0.5
		c1.6-0.6,3.3-1.2,4.9-1.8c0.6-0.2,1.2-0.5,1.9-0.7c19.9-7.5,39.2-16.7,57.7-27.2c0.1-0.1,0.2-0.1,0.2-0.1
		c8.7-4.9,17.3-10.1,25.6-15.6c0.4-0.3,0.9-0.5,1.3-0.8c0.5-0.3,1.1-0.7,1.6-1c0.5-0.4,1.1-0.7,1.6-1.1c0.4-0.2,0.7-0.5,1-0.7
		s0.6-0.4,0.9-0.6c0.3-0.2,0.5-0.4,0.8-0.5c0.9-0.7,1.9-1.3,2.8-1.9c0.2-0.1,0.4-0.3,0.5-0.4c0.5-0.4,1.1-0.8,1.6-1.2
		s1.1-0.8,1.6-1.2c0.7-0.5,1.4-1,2-1.5c0.3-0.2,0.5-0.4,0.7-0.5c0.3-0.2,0.6-0.5,0.9-0.7c0.5-0.4,1.1-0.8,1.6-1.2
		c0.5-0.4,0.9-0.7,1.4-1.1l0.1-0.1c0.2-0.1,0.5-0.3,0.7-0.5c0.2-0.1,0.3-0.2,0.5-0.3c0.2-0.1,0.3-0.2,0.5-0.3l0.1-0.1l0.1-0.1
		c0.5-0.4,1-0.8,1.5-1.1l0.4-0.3c0.5-0.4,0.9-0.7,1.4-1.1c0.3-0.2,0.6-0.5,0.9-0.7c0.4-0.3,0.8-0.7,1.2-1s0.8-0.7,1.2-1
		s0.8-0.7,1.2-1s0.8-0.7,1.2-1c0.5-0.4,1-0.9,1.5-1.3c0.4-0.3,0.8-0.7,1.2-1c0.1-0.1,0.3-0.2,0.4-0.4c0.1-0.1,0.3-0.2,0.4-0.3
		c0.4-0.4,0.8-0.7,1.2-1.1c0.4-0.3,0.7-0.6,1.1-1c0.9-0.8,1.8-1.7,2.7-2.5c0.5-0.5,1-1,1.5-1.5c0.3-0.3,0.7-0.7,1-1
		c0.1-0.1,0.1-0.1,0.2-0.2l0,0l0,0l0,0l0,0l0,0l0,0l0,0l0,0l0,0l0,0l0,0l0,0l0,0l0,0l0,0l0,0l0,0l0,0l0,0l0,0l0,0l0,0l0,0l0,0
		c0,0,0,0,0-0.1l0,0l0,0l0,0l0,0l0,0l0,0l0,0l0,0l0,0l0,0l0,0l0,0l0,0l0,0c0,0,0-0.1,0.1-0.1c0.3-0.4,0.7-0.7,1.1-1.1
		c0.8-0.8,1.5-1.6,2.3-2.5C232.6,101.4,231.4,98.9,230.1,96.5z"/>
	<path class="st0" d="M241,156.3c-0.5,3.5-1.1,7-2,10.4c0,0.1-0.1,0.3-0.1,0.5l0,0l0,0l0,0v0.1l0,0l0,0c-0.1,0.4-0.2,0.7-0.3,1.1
		c-0.3,0.9-0.6,1.9-0.8,2.8c-0.5,1.7-1.1,3.3-1.7,5c-1.2,3.3-2.6,6.6-4.2,9.7c-0.8,1.6-1.6,3.2-2.5,4.7c-0.1,0.1-0.2,0.3-0.2,0.4
		c0,0,0,0,0,0.1l0,0l0,0v0.1c-0.2,0.4-0.5,0.8-0.7,1.2c-0.5,0.8-1,1.6-1.5,2.4c-1.9,3-4,5.9-6.2,8.7c-1.1,1.4-2.3,2.8-3.5,4.1
		c-0.6,0.6-1.2,1.3-1.7,1.9c-0.3,0.3-0.6,0.6-0.9,1c-0.1,0.2-0.3,0.3-0.4,0.5l-0.1,0.1l0,0l0,0l0,0l0,0c0,0-0.1,0.1-0.2,0.2
		c-11,10.9-23.5,18.7-38.1,23.7c-6.9,2.3-14.6,3.9-22.3,4.7c-1.9,0.2-3.8,0.3-5.7,0.4c-0.4,0-0.9,0-1.4,0h-0.1l0,0h-0.1l0,0l0,0
		c-0.1,0-0.3,0-0.4,0c-1.1,0-2.1,0-3.2,0c-3.8-0.1-7.6-0.5-11.3-1c-1.9-0.3-3.7-0.6-5.6-1c-1.6-0.3-4-0.9-5.2-1.2
		c-1.3-0.3-3.6-1-5.3-1.6c-1.8-0.6-3.6-1.2-5.3-1.9c-3.5-1.4-7-2.9-10.3-4.7c-2.2-1.2-4.3-2.4-6.5-3.8l0,0c5.5-1.6,11-3.4,16.5-5.3
		c0.6-0.2,1.1-0.4,1.7-0.6c0.4-0.1,0.8-0.3,1.1-0.4c0.5-0.2,1-0.3,1.4-0.5c0.5-0.2,1-0.4,1.4-0.5c0.2-0.1,0.5-0.2,0.7-0.3
		c0.5-0.2,1.1-0.4,1.6-0.6c1.1-0.4,2.1-0.8,3.2-1.2c3-1.2,6.1-2.4,9.1-3.6c0.7-0.3,1.4-0.6,2.1-0.9c0.8-0.4,1.7-0.7,2.5-1.1
		c1-0.4,1.9-0.8,2.9-1.3c1.2-0.5,2.3-1,3.5-1.5c0.3-0.1,0.6-0.3,0.9-0.4c0.5-0.2,1.1-0.5,1.6-0.7c0.3-0.1,0.5-0.2,0.7-0.3
		c0.5-0.2,1.1-0.5,1.6-0.7c1.3-0.6,2.7-1.2,4-1.8c0.1,0,0.2-0.1,0.3-0.2c0.6-0.3,1.3-0.6,1.9-0.9c1.5-0.7,3-1.4,4.5-2.2
		c0.4-0.2,0.9-0.4,1.3-0.7c0.8-0.4,1.6-0.8,2.4-1.2c1-0.5,2-1,3.1-1.5c0,0,0.1,0,0.2-0.1c1.1-0.6,2.3-1.2,3.4-1.8
		c0.2-0.1,0.3-0.2,0.5-0.2c1.4-0.7,2.7-1.4,4-2.1l2-1.1c0.3-0.2,0.6-0.3,0.9-0.5c0.4-0.2,0.7-0.4,1.1-0.6c0.5-0.3,1.1-0.6,1.6-0.9
		c0.8-0.4,1.6-0.9,2.4-1.3c0.4-0.2,0.7-0.4,1.1-0.6c13.5-7.6,26.7-16,39.3-25c7.8-5.6,15.4-11.5,22.7-17.7l0,0c0,0.4,0,0.8,0,1.1
		C241.8,149.1,241.5,152.7,241,156.3z"/>
	<path class="st0" d="M279,81.1c-0.1,1.1-0.4,2.3-0.6,3.4v0.1l0,0l0,0l0,0c0,0.1,0,0.1-0.1,0.2c0,0.1-0.1,0.2-0.1,0.3
		c-0.2,0.7-0.4,1.5-0.7,2.2c-0.9,2.6-2,5.1-3.3,7.5c-0.3,0.6-0.6,1.1-0.9,1.7c-0.1,0.1-0.1,0.2-0.1,0.3l0,0c0,0,0,0.1-0.1,0.1
		c-0.2,0.4-0.4,0.7-0.6,1c-0.9,1.4-1.8,2.8-2.7,4.2c-1.9,2.9-4.1,5.6-6.2,8.4c-5,6.1-10.3,11.8-16,17.1c-1.3,1.3-2.7,2.5-4.1,3.8
		l0,0c0,0.1-0.1,0.1-0.1,0.1l0,0c-0.1,0.1-0.2,0.2-0.4,0.3l0,0c-18.8,17-39.8,31.6-61.7,44.3c-17.9,10.5-36.7,19.9-56,27.8
		c-0.5,0.2-1,0.4-1.5,0.6c-0.5,0.2-1,0.4-1.5,0.6c0,0,0,0-0.1,0c-0.9,0.4-1.8,0.7-2.7,1.1l0,0c-0.6,0.2-1.1,0.5-1.7,0.7
		c-0.2,0.1-0.5,0.2-0.7,0.3c-0.3,0.1-0.6,0.2-0.9,0.3c-0.6,0.2-1.2,0.5-1.8,0.7c-0.2,0.1-0.5,0.2-0.7,0.3c-0.9,0.3-1.7,0.6-2.6,1
		c-0.8,0.3-1.7,0.6-2.5,0.9c-0.3,0.1-0.6,0.2-1,0.3c-0.6,0.2-1.3,0.5-1.9,0.7c-0.2,0.1-0.3,0.1-0.5,0.2c-0.7,0.3-1.5,0.5-2.2,0.8
		c-0.1,0-0.2,0.1-0.3,0.1c-0.5,0.2-1,0.3-1.5,0.5c-0.7,0.2-1.3,0.5-2,0.7c-0.4,0.1-0.8,0.3-1.1,0.4c-0.7,0.2-1.3,0.4-2,0.6
		c-0.2,0.1-0.5,0.2-0.8,0.2c-0.6,0.2-1.2,0.4-1.7,0.5c-0.3,0.1-0.6,0.2-1,0.3s-0.7,0.2-1.1,0.3s-0.7,0.2-1,0.3
		c-0.4,0.1-0.7,0.2-1,0.3s-0.7,0.2-1,0.3c-1.1,0.3-2.1,0.6-3.2,0.9c-0.9,0.3-1.9,0.5-2.8,0.7c-0.2,0-0.3,0.1-0.4,0.1
		c-7.9,2-15.9,3.7-24,4.8c-3.6,0.5-7.3,0.9-10.9,1.1c-1.6,0.1-3.2,0.2-4.9,0.2c-0.1,0-0.1,0-0.2,0c0.4,0-0.2,0-0.3,0
		c0,0,0.1,0,0.2,0c-0.1,0-0.2,0-0.3,0c-0.3,0-0.6,0-0.8,0c-1,0-1.9,0-2.9-0.1c-2.9-0.1-5.8-0.4-8.7-0.8c-1.2-0.2-2.5-0.5-3.7-0.7
		c-0.1,0-0.3-0.1-0.4-0.1s-0.2-0.1-0.3-0.1c-0.7-0.2-1.4-0.4-2.1-0.7c-1-0.4-2.1-0.8-3.1-1.3c-0.5-0.2-0.9-0.5-1.4-0.7l0,0l0,0l0,0
		l0,0c-0.1-0.1-0.3-0.2-0.4-0.2l0,0c-0.1-0.1-0.2-0.1-0.4-0.3c-0.8-0.5-1.6-1.1-2.4-1.8c-0.2-0.1-0.3-0.3-0.5-0.4
		c-0.3-0.4-0.7-0.7-1-1.1c-0.3-0.4-0.6-0.7-0.8-1.1c-0.1-0.2-0.2-0.3-0.3-0.5c-0.4-0.9-0.9-1.8-1.2-2.7c0-0.1-0.1-0.3-0.2-0.4
		c0-0.1,0-0.1,0-0.2c-0.1-0.4-0.2-0.8-0.3-1.3c-0.2-1-0.4-2.2-0.3-3.1c-0.2,1.5,0-0.4,0.1-0.7c0-0.5,0.1-0.9,0.1-1.4
		c0.1-1.2,0.3-2.3,0.6-3.5c0-0.1,0.1-0.4,0.1-0.5l0,0l0,0l0,0l0,0l0,0c0-0.1,0.1-0.2,0.1-0.3c0.2-0.5,0.3-1,0.5-1.5
		c0.4-1.3,0.9-2.6,1.5-3.8s1.1-2.4,1.7-3.6c0.3-0.7,0.7-1.4,1.1-2c0-0.1,0.2-0.4,0.3-0.6v-0.1l0,0l0,0c0.1-0.2,0.3-0.5,0.4-0.7
		c1.7-2.8,3.5-5.5,5.4-8.1c4.5-6.1,9.6-11.8,14.9-17.2c0.9-1,1.9-1.9,3-2.9c0.6,3.3,1.3,6.6,2.1,9.9l0,0c-3.4,4-6.6,8.4-8.8,13.3
		c-1.8,4.1-2.7,8.9-0.9,13.2c4.1,9.9,18.2,9.6,27,8.7c0.7-0.1,1.5-0.1,2.2-0.3c3.1-0.4,6.1-0.9,9.1-1.5c0.3-0.1,0.6-0.1,0.9-0.2
		c5.2-1.1,10.3-2.5,15.4-4c1.8-0.5,3.6-1.1,5.3-1.7c0.8-0.3,1.6-0.5,2.4-0.8c2.6-0.9,5.2-1.8,7.7-2.7c0.7-0.2,1.3-0.5,2-0.7
		c0.9-0.3,1.8-0.7,2.7-1c1.1-0.4,2.1-0.8,3.1-1.2c0.7-0.3,1.5-0.6,2.2-0.9c0.7-0.3,1.5-0.6,2.2-0.9c1-0.4,2-0.8,3-1.3
		c0,0,0.1,0,0.1-0.1c0.4-0.2,0.8-0.3,1.2-0.5c1.5-0.6,3.1-1.3,4.6-2c0.6-0.3,1.3-0.6,1.9-0.8c3.2-1.4,6.4-2.9,9.6-4.4
		c5.9-2.8,11.8-5.7,17.7-8.7c0.1,0,0.1,0,0.2-0.1c12.6-6.6,24.8-13.7,36.7-21.4c3.8-2.4,7.6-4.9,11.3-7.5c4.4-3.1,8.8-6.3,13-9.5
		c5.5-4.2,10.9-8.7,16.1-13.4c0.2-0.2,0.3-0.3,0.5-0.5c2.9-2.7,5.7-5.5,8.4-8.4c0.4-0.5,0.8-0.9,1.3-1.4c0.1-0.1,0.1-0.1,0.2-0.2
		c3-3.4,5.9-7,8.2-10.9c2.5-4.3,4.7-9.2,4.1-14.3c-1.3-10.8-13.8-12.4-22.5-12.2c-2.3,0.1-4.6,0.3-6.9,0.5c-2.3-2.5-4.7-4.9-7.1-7.2
		c9.8-2.2,19.7-3.7,29.7-4c0.4,0,0.7,0,1.1,0c0.1,0,0.2,0,0.4,0h0.1l0,0h0.1l0,0l0,0c0.5,0,0.9,0,1.4,0c1.4,0,2.7,0.1,4.1,0.1
		c2.4,0.1,4.8,0.4,7.1,0.8c1,0.2,2.1,0.4,3.1,0.6c0.2,0.1,1.1,0.3,1.2,0.3l0,0c0.4,0.1,0.8,0.2,1.1,0.3c1.8,0.6,3.6,1.3,5.3,2.2
		c0.2,0.1,0.3,0.2,0.5,0.3l0,0l0,0c0.4,0.3,0.9,0.6,1.3,0.9c0.7,0.5,1.4,1.1,2.1,1.6c0,0,0.1,0,0.1,0.1l0,0l0,0
		c0.1,0.1,0.2,0.2,0.3,0.3c0.3,0.3,0.6,0.7,0.9,1.1c0.3,0.3,0.5,0.7,0.7,1c0.1,0.2,0.2,0.3,0.3,0.4l0,0v0.1c0.5,0.9,0.9,1.7,1.2,2.6
		c0,0,0,0.1,0.1,0.2c0-0.1,0-0.1,0-0.1s0,0.1,0.1,0.3c0-0.1,0-0.2-0.1-0.2c0,0.1,0.1,0.3,0.1,0.4v-0.1c0,0,0,0,0-0.1
		c0,0.1,0,0.2,0.1,0.2l0,0c0.1,0.5,0.2,1,0.3,1.5c0.1,0.5,0.1,1,0.2,1.4c0,0.1,0,0.4,0,0.7l0,0c0,0,0,0.5,0,0.6c0,0.3,0,0.6,0,0.8
		C279.1,79.9,279,80.5,279,81.1z"/>
</g>
</svg>
