<?xml version="1.0" encoding="utf-8"?>
<!-- Generator: Adobe Illustrator 24.2.1, SVG Export Plug-In . SVG Version: 6.00 Build 0)  -->
<svg version="1.1" id="Layer_1" focusable="false" xmlns="http://www.w3.org/2000/svg" xmlns:xlink="http://www.w3.org/1999/xlink"
	 x="0px" y="0px" viewBox="0 0 608.9 608.9" style="enable-background:new 0 0 608.9 608.9;" xml:space="preserve">
<style type="text/css">
	.st0{fill:#E2F4F1;}
	.st1{fill:#3FB5A1;}
</style>
<path class="st0" d="M568.9,608.9H40c-22.1,0-40-17.9-40-40V40C0,17.9,17.9,0,40,0h528.9c22.1,0,40,17.9,40,40v528.9
	C608.9,591,591,608.9,568.9,608.9z"/>
<path class="st1" d="M458.5,409.3H169.1V205.6c0-5.9-4.8-10.7-10.7-10.7H137c-5.9,0-10.7,4.8-10.7,10.7v225.1
	c0,11.8,9.6,21.4,21.4,21.4h310.8c5.9,0,10.7-4.8,10.7-10.7V420C469.2,414,464.4,409.3,458.5,409.3z M437.1,216.3H358
	c-14.3,0-21.5,17.3-11.4,27.4l21.7,21.7l-49.1,49.2L270,265.5c-8.4-8.4-21.9-8.4-30.3,0l-46,46c-4.2,4.2-4.2,11,0,15.2l15.2,15.2
	c4.2,4.2,11,4.2,15.2,0l30.9-30.9l49.1,49.1c8.4,8.4,21.9,8.4,30.3,0l64.3-64.3l21.7,21.7c10.1,10.1,27.4,3,27.4-11.4V227
	C447.8,221.1,443,216.3,437.1,216.3z"/>
</svg>
