<?xml version="1.0" encoding="utf-8"?>
<!-- Generator: Adobe Illustrator 24.2.1, SVG Export Plug-In . SVG Version: 6.00 Build 0)  -->
<svg version="1.1" id="Layer_1" focusable="false" xmlns="http://www.w3.org/2000/svg" xmlns:xlink="http://www.w3.org/1999/xlink"
	 x="0px" y="0px" viewBox="0 0 608.9 608.9" style="enable-background:new 0 0 608.9 608.9;" xml:space="preserve">
<style type="text/css">
	.st0{fill:#E2EBF4;}
	.st1{fill:#3F78B5;}
</style>
<path class="st0" d="M568.9,608.9H40c-22.1,0-40-17.9-40-40V40C0,17.9,17.9,0,40,0h528.9c22.1,0,40,17.9,40,40v528.9
	C608.9,591,591,608.9,568.9,608.9z"/>
<path class="st1" d="M436.8,207.3c3.2,1.3,6.7,2,10.3,2c15.8,0,28.5-12.8,28.5-28.5s-12.8-28.5-28.5-28.5s-28.5,12.8-28.5,28.5
	c0,1.4,0.2,2.8,0.4,4.2l-56.7,45.3c-3.2-1.3-6.7-2-10.3-2c-3.7,0-7.1,0.7-10.3,2L285,185c0.2-1.4,0.4-2.8,0.4-4.2
	c0-15.8-12.8-28.5-28.5-28.5s-28.5,12.8-28.5,28.5c0,2.5,0.4,5,1.1,7.3l-60.3,60.3c-2.3-0.6-4.8-1.1-7.3-1.1
	c-15.8,0-28.5,12.8-28.5,28.5s12.8,28.5,28.5,28.5s28.5-12.8,28.5-28.5c0-2.5-0.4-5-1.1-7.3l60.3-60.3c2.3,0.6,4.8,1.1,7.3,1.1
	c3.7,0,7.1-0.7,10.3-2l56.7,45.3c-0.2,1.4-0.4,2.8-0.4,4.2c0,15.8,12.8,28.5,28.5,28.5c15.8,0,28.5-12.8,28.5-28.5
	c0-1.4-0.2-2.8-0.4-4.2L436.8,207.3L436.8,207.3z M371,342.5h-38c-5.3,0-9.5,4.3-9.5,9.5v95.1c0,5.3,4.3,9.5,9.5,9.5h38
	c5.3,0,9.5-4.3,9.5-9.5V352C380.5,346.7,376.3,342.5,371,342.5z M466.1,266.4h-38c-5.3,0-9.5,4.3-9.5,9.5v171.2
	c0,5.3,4.3,9.5,9.5,9.5h38c5.3,0,9.5-4.3,9.5-9.5V275.9C475.6,270.7,471.4,266.4,466.1,266.4z M275.9,266.4h-38
	c-5.3,0-9.5,4.3-9.5,9.5v171.2c0,5.3,4.3,9.5,9.5,9.5h38c5.3,0,9.5-4.3,9.5-9.5V275.9C285.4,270.7,281.2,266.4,275.9,266.4z
	 M180.8,361.5h-38c-5.3,0-9.5,4.3-9.5,9.5v76.1c0,5.3,4.3,9.5,9.5,9.5h38c5.3,0,9.5-4.3,9.5-9.5V371
	C190.3,365.8,186.1,361.5,180.8,361.5z"/>
</svg>
