<?xml version="1.0" encoding="utf-8"?>
<!-- Generator: Adobe Illustrator 24.2.1, SVG Export Plug-In . SVG Version: 6.00 Build 0)  -->
<svg version="1.1" id="Layer_1" focusable="false" xmlns="http://www.w3.org/2000/svg" xmlns:xlink="http://www.w3.org/1999/xlink"
	 x="0px" y="0px" viewBox="0 0 608.9 608.9" style="enable-background:new 0 0 608.9 608.9;" xml:space="preserve">
<style type="text/css">
	.st0{fill:#E2F1F4;}
	.st1{fill:#3F9FB3;}
</style>
<path class="st0" d="M568.9,608.9H40c-22.1,0-40-17.9-40-40V40C0,17.9,17.9,0,40,0h528.9c22.1,0,40,17.9,40,40v528.9
	C608.9,591,591,608.9,568.9,608.9z"/>
<path class="st1" d="M461.4,199.9H185.6c-7.9,0-14.3,6.4-14.3,14.3v4.8h-23.8c-7.9,0-14.3,6.4-14.3,14.3v161.7
	c0,18.4,14.9,33.3,33.3,33.3h280.6c15.8,0,28.5-12.8,28.5-28.5V214.1C475.6,206.3,469.3,199.9,461.4,199.9z M166.5,399.6
	c-2.6,0-4.8-2.1-4.8-4.8V247.4h9.5v147.4C171.3,397.5,169.2,399.6,166.5,399.6z M306.8,390.1h-90.3c-3.9,0-7.1-3.2-7.1-7.1v-4.8
	c0-3.9,3.2-7.1,7.1-7.1h90.3c3.9,0,7.1,3.2,7.1,7.1v4.8C314,386.9,310.8,390.1,306.8,390.1z M430.5,390.1h-90.3
	c-3.9,0-7.1-3.2-7.1-7.1v-4.8c0-3.9,3.2-7.1,7.1-7.1h90.3c3.9,0,7.1,3.2,7.1,7.1v4.8C437.6,386.9,434.4,390.1,430.5,390.1z
	 M306.8,333h-90.3c-3.9,0-7.1-3.2-7.1-7.1v-4.8c0-3.9,3.2-7.1,7.1-7.1h90.3c3.9,0,7.1,3.2,7.1,7.1v4.8
	C314,329.8,310.8,333,306.8,333z M430.5,333h-90.3c-3.9,0-7.1-3.2-7.1-7.1v-4.8c0-3.9,3.2-7.1,7.1-7.1h90.3c3.9,0,7.1,3.2,7.1,7.1
	v4.8C437.6,329.8,434.4,333,430.5,333z M430.5,276h-214c-3.9,0-7.1-3.2-7.1-7.1V245c0-3.9,3.2-7.1,7.1-7.1h214
	c3.9,0,7.1,3.2,7.1,7.1v23.8C437.6,272.8,434.4,276,430.5,276z"/>
</svg>
