<?xml version="1.0" encoding="utf-8"?>
<!-- Generator: Adobe Illustrator 24.2.1, SVG Export Plug-In . SVG Version: 6.00 Build 0)  -->
<svg version="1.1" id="Layer_1" focusable="false" xmlns="http://www.w3.org/2000/svg" xmlns:xlink="http://www.w3.org/1999/xlink"
	 x="0px" y="0px" viewBox="0 0 608.9 608.9" style="enable-background:new 0 0 608.9 608.9;" xml:space="preserve">
<style type="text/css">
	.st0{fill:#E2E5F4;}
	.st1{fill:#3F51B5;}
</style>
<path class="st0" d="M568.9,608.9H40c-22.1,0-40-17.9-40-40V40C0,17.9,17.9,0,40,0h528.9c22.1,0,40,17.9,40,40v528.9
	C608.9,591,591,608.9,568.9,608.9z"/>
<path class="st1" d="M452.5,265.7c21.4,0,38.8-17.4,38.8-38.8s-17.4-38.8-38.8-38.8s-38.8,17.4-38.8,38.8S431.1,265.7,452.5,265.7z
	 M142.5,294.8c-21.4,0-38.8,17.4-38.8,38.8s17.4,38.8,38.8,38.8s38.8-17.4,38.8-38.8S163.8,294.8,142.5,294.8z M414.7,272.2
	L403,256.7L374,278.5l11.6,15.5L414.7,272.2z M452.5,382c-8.7,0-16.7,3-23.2,7.9l-58.1-34.9c2.3-6.8,3.8-13.9,3.8-21.5
	c0-37.5-30.3-67.8-67.8-67.8c-5.1,0-10.1,0.7-14.8,1.8l-24.7-52.9c6.4-6.9,10.4-16.1,10.4-26.3c0-21.4-17.4-38.8-38.8-38.8
	s-38.8,17.4-38.8,38.8S218,227,239.3,227c0.7,0,1.3-0.2,1.9-0.2l24.8,53.2c-16.2,12.4-26.8,31.7-26.8,53.6
	c0,37.5,30.3,67.8,67.8,67.8c19.4,0,36.8-8.3,49.2-21.4l58,34.8c-0.3,1.9-0.6,3.9-0.6,5.9c0,21.4,17.4,38.8,38.8,38.8
	s38.8-17.4,38.8-38.8S473.8,382,452.5,382z M307.1,362.6c-16,0-29.1-13-29.1-29.1s13-29.1,29.1-29.1s29.1,13,29.1,29.1
	S323.2,362.6,307.1,362.6z M195.7,343.2h29.1v-19.4h-29.1V343.2z"/>
</svg>
