<?xml version="1.0" encoding="utf-8"?>
<!-- Generator: Adobe Illustrator 24.2.1, SVG Export Plug-In . SVG Version: 6.00 Build 0)  -->
<svg version="1.1" id="Layer_1" focusable="false" xmlns="http://www.w3.org/2000/svg" xmlns:xlink="http://www.w3.org/1999/xlink"
	 x="0px" y="0px" viewBox="0 0 608.9 608.9" style="enable-background:new 0 0 608.9 608.9;" xml:space="preserve">
<style type="text/css">
	.st0{fill:#F6F5E9;}
	.st1{fill:#C5B558;}
</style>
<path class="st0" d="M568.9,608.9H40c-22.1,0-40-17.9-40-40V40C0,17.9,17.9,0,40,0h528.9c22.1,0,40,17.9,40,40v528.9
	C608.9,591,591,608.9,568.9,608.9z"/>
<path class="st1" d="M306.6,196.9l29.4,12.3l12.3,29.4c1,1.9,3.3,2.7,5.3,1.8c0.8-0.4,1.4-1,1.8-1.8l12.3-29.4l29.4-12.3
	c1.9-1,2.7-3.3,1.8-5.3c-0.4-0.8-1-1.4-1.8-1.8l-29.4-12.3l-12.3-29.4c-1-1.9-3.3-2.7-5.3-1.8c-0.8,0.4-1.4,1-1.8,1.8L336,177.6
	l-29.4,12.3c-1.9,1-2.7,3.3-1.8,5.3C305.3,195.9,305.9,196.5,306.6,196.9z M368.6,304.2l-62-9.1l-27.8-56.4
	c-5-10.1-19.4-10.2-24.4,0l-27.8,56.4l-62,9.1c-11.1,1.6-15.6,15.3-7.5,23.2l44.9,43.8l-10.7,61.9c-1.9,11.2,9.9,19.6,19.7,14.3
	l55.5-29.2l55.5,29.2c6.6,3.5,14.9,0.9,18.4-5.7c1.4-2.6,1.9-5.7,1.4-8.6l-10.6-61.9l44.9-43.8C384.2,319.6,379.7,305.8,368.6,304.2
	z M454.3,275.8l-23.5-9.8l-9.8-23.5c-0.8-1.6-2.7-2.2-4.2-1.4c-0.6,0.3-1.1,0.8-1.4,1.4l-9.8,23.5l-23.5,9.8
	c-1.6,0.8-2.2,2.7-1.4,4.2c0.3,0.6,0.8,1.1,1.4,1.4l23.5,9.8l9.8,23.5c0.8,1.6,2.7,2.2,4.2,1.4c0.6-0.3,1.1-0.8,1.4-1.4l9.8-23.5
	l23.5-9.8c1.6-0.8,2.2-2.7,1.4-4.2C455.4,276.6,454.9,276.1,454.3,275.8L454.3,275.8z"/>
</svg>
